PathFileType	4	(X/Y/Z)	/Users/itak/Documents/Research/Walk-IL/dataset/trc/00104_00007.trc
DataRate	CameraRate	NumFrames	NumMarkers	Units	OrigDataRate	OrigDataStartFrame	OrigNumFrames
100.000000	100.000000	4	53	mm	100.000000	0	604
Frame#	Time	RPSI			LPSI			L3			STRN			T10			C7			CLAV			RBAK			LBAK			LSHO			LUPA			LAEL			LAOL			LWTS			LWPS			LFRA			LIFD			LHPS			LHTS			RSHO			RUPA			RAEL			RAOL			RWTS			RWPS			RFRA			RIFD			RHTS			RHPS			RBHD			LFHD			RFHD			LBHD			LHIP			RHIP			RASI			LASI			LKNE			LTHI			LANK			LTIP			LTOE			LMT1			LMT5			LHEE			RKNE			RTHI			RANK			RTIP			RTOE			RMT1			RMT5			RHEE			
		X1	Y1	Z1	X2	Y2	Z2	X3	Y3	Z3	X4	Y4	Z4	X5	Y5	Z5	X6	Y6	Z6	X7	Y7	Z7	X8	Y8	Z8	X9	Y9	Z9	X10	Y10	Z10	X11	Y11	Z11	X12	Y12	Z12	X13	Y13	Z13	X14	Y14	Z14	X15	Y15	Z15	X16	Y16	Z16	X17	Y17	Z17	X18	Y18	Z18	X19	Y19	Z19	X20	Y20	Z20	X21	Y21	Z21	X22	Y22	Z22	X23	Y23	Z23	X24	Y24	Z24	X25	Y25	Z25	X26	Y26	Z26	X27	Y27	Z27	X28	Y28	Z28	X29	Y29	Z29	X30	Y30	Z30	X31	Y31	Z31	X32	Y32	Z32	X33	Y33	Z33	X34	Y34	Z34	X35	Y35	Z35	X36	Y36	Z36	X37	Y37	Z37	X38	Y38	Z38	X39	Y39	Z39	X40	Y40	Z40	X41	Y41	Z41	X42	Y42	Z42	X43	Y43	Z43	X44	Y44	Z44	X45	Y45	Z45	X46	Y46	Z46	X47	Y47	Z47	X48	Y48	Z48	X49	Y49	Z49	X50	Y50	Z50	X51	Y51	Z51	X52	Y52	Z52	X53	Y53	Z53	

1	0	-1944.69677734375	1123.40087890625	-254.767822265625	-1945.016357421875	1124.229614257812	-389.4302978515625	-1952.8583984375	1156.492309570312	-325.2599182128906	-1739.468872070312	1362.657958984375	-323.255859375	-1994.635864257812	1307.266235351562	-327.4974365234375	-1961.39404296875	1599.545288085938	-343.3946228027344	-1776.176147460938	1497.764892578125	-328.2025146484375	-2017.671997070312	1415.377075195312	-256.6788330078125	-1965.17626953125	1580.152221679688	-445.6748657226562	-1875.431396484375	1567.3837890625	-510.4725036621094	-1887.637939453125	1435.109375	-580.6767578125	-1861.505493164062	1214.989990234375	-598.9564208984375	-1933.644165039062	1201.012817382812	-550.7434692382812	-1757.750244140625	962.4542236328125	-536.7633666992188	-1833.433471679688	933.201904296875	-574.9520874023438	-1839.91748046875	1099.635009765625	-598.4398803710938	-1743.599243164062	770.5343627929688	-509.256103515625	-1800.777099609375	859.571044921875	-569.8949584960938	-1737.298950195312	873.4820556640625	-543.6951293945312	-1912.576782226562	1582.44287109375	-160.1615905761719	-1930.922485351562	1509.452270507812	-96.57390594482422	-1937.666748046875	1214.62060546875	-72.89904022216797	-1942.52392578125	1213.7001953125	-170.9131011962891	-1788.120483398438	974.0719604492188	-83.64524841308594	-1864.36474609375	956.1399536132812	-51.99198532104492	-1913.455322265625	1141.800903320312	-56.46677017211914	-1762.94580078125	779.0447387695312	-103.0144729614258	-1758.060668945312	864.9869995117188	-78.83277130126953	-1826.118530273438	856.243408203125	-49.19779586791992	-1935.321411132812	1768.648193359375	-274.8756103515625	-1751.781005859375	1846.247802734375	-370.2703857421875	-1779.964477539062	1850.021850585938	-243.8877258300781	-1914.011596679688	1768.388427734375	-409.1094665527344	-1852.18359375	1037.664306640625	-496.7319030761719	-1814.620483398438	1031.529541015625	-138.0614318847656	-1735.535278320312	1106.946899414062	-190.0883483886719	-1745.6494140625	1105.290649414062	-455.5265808105469	-1816.514770507812	536.8152465820312	-470.2746276855469	-1838.33154296875	683.0342407226562	-495.5987243652344	-1941.611083984375	38.51545715332031	-466.9375610351562	-1924.495849609375	292.2247924804688	-496.6451416015625	-1710.061767578125	36.83635711669922	-411.6659851074219	-1791.650390625	40.27273178100586	-377.8904113769531	-1816.901123046875	33.80934906005859	-494.623779296875	-2009.763916015625	38.17352676391602	-403.0677185058594	-1816.376831054688	538.6411743164062	-171.1290130615234	-1796.437622070312	817.9381103515625	-143.7982025146484	-1923.822509765625	28.68155670166016	-181.9311370849609	-1842.653442382812	404.4598388671875	-159.3507690429688	-1696.825561523438	41.99079132080078	-249.5903778076172	-1759.705200195312	32.22048568725586	-288.2676391601562	-1789.358154296875	36.12409591674805	-169.2041931152344	-1984.45556640625	32.12351989746094	-225.6579437255859	
2	0.01	-1944.531494140625	1123.39453125	-254.746826171875	-1944.936157226562	1124.2265625	-389.3960571289062	-1952.732788085938	1156.462158203125	-325.221923828125	-1739.411865234375	1362.636352539062	-323.3718872070312	-1994.531616210938	1307.205688476562	-327.3912048339844	-1961.399169921875	1599.505126953125	-343.2510375976562	-1776.24169921875	1497.733276367188	-328.2613220214844	-2017.524780273438	1415.289428710938	-256.5167236328125	-1965.255126953125	1580.145385742188	-445.54931640625	-1875.565551757812	1567.360717773438	-510.3857421875	-1887.817504882812	1435.135131835938	-580.6173706054688	-1861.564819335938	1215.013793945312	-598.9382934570312	-1933.640991210938	1200.983032226562	-550.67138671875	-1757.52001953125	962.6343994140625	-536.8123168945312	-1833.130493164062	933.2738647460938	-574.8652954101562	-1839.875732421875	1099.688354492188	-598.4175415039062	-1742.948852539062	770.7222900390625	-509.177734375	-1800.384887695312	859.6679077148438	-569.817626953125	-1736.942993164062	873.7131958007812	-543.6981201171875	-1912.454833984375	1582.3720703125	-160.0855712890625	-1930.665771484375	1509.313110351562	-96.48618316650391	-1937.489013671875	1214.503051757812	-72.98040771484375	-1942.38525390625	1213.664916992188	-171.0414886474609	-1788.0439453125	973.85693359375	-83.91560363769531	-1864.31640625	955.98779296875	-52.2525520324707	-1913.313598632812	1141.671142578125	-56.60738754272461	-1762.98779296875	778.8096313476562	-103.4172515869141	-1758.106079101562	864.722900390625	-79.22761535644531	-1826.155029296875	855.9935913085938	-49.49435043334961	-1935.025390625	1768.6748046875	-274.3409118652344	-1752.111450195312	1846.216064453125	-370.8623046875	-1779.421020507812	1849.97998046875	-244.3050231933594	-1914.502319335938	1768.400756835938	-408.6629943847656	-1852.176391601562	1037.66796875	-496.7800598144531	-1814.329711914062	1031.505615234375	-138.1660614013672	-1735.36669921875	1106.936157226562	-190.2045288085938	-1745.54345703125	1105.30908203125	-455.6723022460938	-1816.521606445312	536.8020629882812	-470.3384704589844	-1838.353393554688	683.0361328125	-495.6753234863281	-1941.615966796875	38.50918960571289	-466.9389953613281	-1924.495239257812	292.2186279296875	-496.677001953125	-1710.063598632812	36.83526611328125	-411.6719055175781	-1791.6572265625	40.27341461181641	-377.8921203613281	-1816.908325195312	33.80527114868164	-494.6278076171875	-2009.762939453125	38.17690658569336	-403.069580078125	-1816.211547851562	538.6328125	-171.2355194091797	-1796.093139648438	817.9246826171875	-143.9685363769531	-1923.823486328125	28.69424819946289	-181.9336395263672	-1842.546264648438	404.4381103515625	-159.4058685302734	-1696.8095703125	41.97467041015625	-249.6060333251953	-1759.699096679688	32.20810317993164	-288.2805786132812	-1789.382446289062	36.12745666503906	-169.2202758789062	-1984.457885742188	32.13104248046875	-225.6598663330078	
3	0.02	-1944.321044921875	1123.3857421875	-254.7250518798828	-1944.837890625	1124.222900390625	-389.3563232421875	-1952.574462890625	1156.424194335938	-325.1786499023438	-1739.340087890625	1362.609619140625	-323.5290832519531	-1994.406860351562	1307.129150390625	-327.2581176757812	-1961.40625	1599.457275390625	-343.068115234375	-1776.2939453125	1497.698486328125	-328.3276062011719	-2017.34375	1415.182739257812	-256.3153381347656	-1965.366455078125	1580.1318359375	-445.3907470703125	-1875.736206054688	1567.34130859375	-510.2813110351562	-1888.044677734375	1435.167724609375	-580.5419921875	-1861.652221679688	1215.04296875	-598.9113159179688	-1933.651245117188	1200.947998046875	-550.5755615234375	-1757.256469726562	962.85400390625	-536.8629760742188	-1832.781494140625	933.362060546875	-574.7587280273438	-1839.83056640625	1099.751342773438	-598.3857421875	-1742.1806640625	770.9429321289062	-509.0719299316406	-1799.915283203125	859.785400390625	-569.7203979492188	-1736.519287109375	873.9904174804688	-543.703125	-1912.296142578125	1582.278686523438	-159.9837341308594	-1930.34521484375	1509.144165039062	-96.38054656982422	-1937.245971679688	1214.355712890625	-73.07881164550781	-1942.187133789062	1213.5986328125	-171.1699981689453	-1787.94189453125	973.5838012695312	-84.25685119628906	-1864.23876953125	955.7939453125	-52.58105087280273	-1913.1171875	1141.509399414062	-56.77881622314453	-1763.0263671875	778.5379638671875	-103.9184722900391	-1758.162109375	864.40234375	-79.7218017578125	-1826.186645507812	855.6900024414062	-49.86966323852539	-1934.635986328125	1768.70654296875	-273.6543273925781	-1752.513427734375	1846.179565429688	-371.605224609375	-1778.73974609375	1849.923461914062	-244.8325805664062	-1915.120239257812	1768.422119140625	-408.0885925292969	-1852.164428710938	1037.671875	-496.8440551757812	-1813.978271484375	1031.4765625	-138.2969665527344	-1735.144897460938	1106.919677734375	-190.3668518066406	-1745.412353515625	1105.337158203125	-455.8569030761719	-1816.532348632812	536.7843627929688	-470.4176330566406	-1838.385986328125	683.038818359375	-495.7712097167969	-1941.621948242188	38.50160217285156	-466.9410400390625	-1924.496704101562	292.210693359375	-496.7146606445312	-1710.064086914062	36.83484649658203	-411.6786193847656	-1791.662841796875	40.27605438232422	-377.8942565917969	-1816.916381835938	33.79996871948242	-494.6325073242188	-2009.764770507812	38.18608093261719	-403.0730285644531	-1816.011962890625	538.6220703125	-171.3709259033203	-1795.703002929688	817.8851928710938	-144.1795349121094	-1923.82373046875	28.70606803894043	-181.9366149902344	-1842.41455078125	404.4123840332031	-159.4742431640625	-1696.794555664062	41.95256805419922	-249.6271209716797	-1759.691528320312	32.19096755981445	-288.2970886230469	-1789.405883789062	36.13121795654297	-169.2396087646484	-1984.458984375	32.14127349853516	-225.6609649658203	
4	0.03	-1944.073120117188	1123.374267578125	-254.7056884765625	-1944.725830078125	1124.218383789062	-389.314208984375	-1952.3896484375	1156.380859375	-325.1335144042969	-1739.257202148438	1362.579345703125	-323.7257385253906	-1994.269775390625	1307.041137695312	-327.1054382324219	-1961.414672851562	1599.404663085938	-342.8524475097656	-1776.321655273438	1497.663818359375	-328.3979797363281	-2017.138549804688	1415.063720703125	-256.0846862792969	-1965.510375976562	1580.110229492188	-445.2047119140625	-1875.937622070312	1567.330200195312	-510.1655578613281	-1888.309326171875	1435.204711914062	-580.4541015625	-1861.76953125	1215.075927734375	-598.8745727539062	-1933.682250976562	1200.910034179688	-550.4581909179688	-1756.980102539062	963.1000366210938	-536.9080200195312	-1832.416748046875	933.4606323242188	-574.637939453125	-1839.7880859375	1099.819580078125	-598.3438110351562	-1741.354858398438	771.1784057617188	-508.9437866210938	-1799.401123046875	859.9165649414062	-569.6075439453125	-1736.05419921875	874.2940673828125	-543.7086181640625	-1912.102661132812	1582.163818359375	-159.8563842773438	-1929.975952148438	1508.95556640625	-96.26321411132812	-1936.93896484375	1214.184692382812	-73.18836212158203	-1941.933715820312	1213.501586914062	-171.2844543457031	-1787.813720703125	973.265869140625	-84.65492248535156	-1864.124389648438	955.5663452148438	-52.96148681640625	-1912.864013671875	1141.32177734375	-56.97176742553711	-1763.055541992188	778.2490844726562	-104.4952011108398	-1758.219360351562	864.0474243164062	-80.29243469238281	-1826.19970703125	855.3519897460938	-50.31055450439453	-1934.161865234375	1768.740356445312	-272.8393249511719	-1752.964233398438	1846.14111328125	-372.4674072265625	-1777.944458007812	1849.852783203125	-245.4490051269531	-1915.840209960938	1768.454956054688	-407.40478515625	-1852.1484375	1037.676025390625	-496.9228820800781	-1813.585693359375	1031.444091796875	-138.4492340087891	-1734.872680664062	1106.897216796875	-190.5756378173828	-1745.267211914062	1105.374145507812	-456.0744934082031	-1816.547241210938	536.7630615234375	-470.5090026855469	-1838.429565429688	683.041748046875	-495.8829956054688	-1941.628662109375	38.49314117431641	-466.9437866210938	-1924.501708984375	292.201416015625	-496.755859375	-1710.063110351562	36.83538055419922	-411.6857604980469	-1791.66650390625	40.2808837890625	-377.8973083496094	-1816.9248046875	33.79388427734375	-494.6377563476562	-2009.768676757812	38.19980621337891	-403.0776062011719	-1815.791015625	538.6091918945312	-171.5291442871094	-1795.294189453125	817.814208984375	-144.4225616455078	-1923.822509765625	28.71533393859863	-181.9400939941406	-1842.265869140625	404.3844909667969	-159.5530395507812	-1696.782470703125	41.92444610595703	-249.6529998779297	-1759.682739257812	32.16870880126953	-288.3164367675781	-1789.423095703125	36.13528442382812	-169.2605590820312	-1984.4580078125	32.15377426147461	-225.6605224609375	
